<svg width="198.000000" height="209.000000" viewBox="0 0 198 209" fill="none" xmlns="http://www.w3.org/2000/svg" xmlns:xlink="http://www.w3.org/1999/xlink">
	<desc>
			Created with Pixso.
	</desc>
	<defs/>
	<path id="Star 2" d="M86.16 66.53L37.07 19.95L66.2 81.03L-0.89 72.2L58.58 104.5L-0.89 136.79L66.2 127.96L37.07 189.04L86.16 142.46L98.5 209L110.83 142.46L159.92 189.04L130.79 127.96L197.88 136.79L138.41 104.5L197.88 72.2L130.79 81.03L159.92 19.95L110.83 66.53L98.5 0L86.16 66.53ZM98.5 5.48L86.81 68.53L40.3 24.39L67.9 82.27L4.33 73.9L60.67 104.5L4.33 135.09L67.9 126.73L40.3 184.6L86.81 140.46L98.5 203.51L110.18 140.46L156.69 184.6L129.09 126.73L192.66 135.09L136.32 104.5L192.66 73.9L129.09 82.27L156.69 24.39L110.18 68.53L98.5 5.48Z" fill="#000000" fill-opacity="1.000000" fill-rule="evenodd"/>
</svg>
